<svg width="1536" height="838" viewBox="0 0 1536 838" fill="none" xmlns="http://www.w3.org/2000/svg">
<rect width="1536" height="838" fill="white"/>
<rect opacity="0.2" x="1175" y="276" width="61" height="76" fill="#FF0000" stroke="black" stroke-width="2"/>
<rect opacity="0.2" x="1253" y="273" width="51" height="79" fill="#FF383C" stroke="black" stroke-width="2"/>
<rect opacity="0.2" x="1329" y="278" width="50" height="74" fill="#FF383C" stroke="black" stroke-width="2"/>
<rect opacity="0.2" x="1398" y="276" width="65" height="76" fill="#FF383C" stroke="black" stroke-width="2"/>
<rect opacity="0.2" x="925" y="460" width="65" height="156" fill="#FF383C" stroke="black" stroke-width="2"/>
<rect opacity="0.2" x="1010" y="460" width="45" height="156" fill="#FF383C" stroke="black" stroke-width="2"/>
<rect opacity="0.2" x="1074" y="457" width="43" height="159" fill="#FF383C" stroke="black" stroke-width="2"/>
<rect opacity="0.2" x="1244" y="457" width="51" height="159" fill="#FF383C" stroke="black" stroke-width="2"/>
<rect opacity="0.2" x="1315" y="458" width="48" height="158" fill="#FF383C" stroke="black" stroke-width="2"/>
<rect opacity="0.2" x="1387" y="457" width="76" height="159" fill="#FF383C" stroke="black" stroke-width="2"/>
<rect opacity="0.2" x="939" y="278" width="77" height="74" fill="#FF2D55" stroke="black" stroke-width="2"/>
<rect opacity="0.2" x="1032" y="279" width="60" height="73" fill="#FF383C" stroke="black" stroke-width="2"/>
<rect opacity="0.2" x="1110" y="276" width="51" height="76" fill="#FF383C" stroke="black" stroke-width="2"/>
<rect opacity="0.2" x="911" y="378" width="340" height="40" fill="#808080" stroke="black" stroke-width="2"/>
<rect opacity="0.2" x="1396" y="375" width="67" height="43" fill="#808080" stroke="black" stroke-width="2"/>
<rect opacity="0.2" x="1265" y="385" width="121" height="44" fill="#EE82EE"/>
<path opacity="0.2" d="M825 203.5V251L889 285.5L920 245.5L916 203.5H825Z" fill="#AC7F5E" stroke="black"/>
</svg>
