<svg width="1536" height="838" viewBox="0 0 1536 838" fill="none" xmlns="http://www.w3.org/2000/svg">
<g id="Frame 1">
<rect width="1536" height="838" fill="white"/>
<rect id="border" opacity="0.3" x="66" y="132" width="1399" height="525" fill="white"/>
<g id="Amenities">
<g id="restroom">
<rect id="restroom_3" x="560" y="148" width="90" height="73" fill="#00C3D0" stroke="black" stroke-width="2"/>
<rect id="restroom_2" x="881" y="146" width="95" height="57" fill="#00C3D0" stroke="black" stroke-width="2"/>
<rect id="restroom_1" x="1112" y="608" width="30" height="42" fill="#00C3D0" stroke="black" stroke-width="2"/>
</g>
<g id="lifts">
<rect id="lift_3" x="1105" y="476" width="37" height="42" fill="#AC7F5E" stroke="black" stroke-width="2"/>
<path id="lift_2" d="M873.5 241H827.5V282.5L866 304L873.5 292.5V241Z" fill="#AC7F5E" stroke="black" stroke-width="2"/>
<path id="lift_1" d="M716.5 239.5H662V298L669.5 305.5L716.5 278.5V239.5Z" fill="#AC7F5E" stroke="black" stroke-width="2"/>
</g>
<g id="Escalators">
<rect id="escalator2" x="152" y="420" width="84" height="35" fill="#34C759" stroke="black" stroke-width="2"/>
<rect id="escalator_1" x="1298" y="420" width="85" height="35" fill="#34C759" stroke="black" stroke-width="2"/>
</g>
</g>
<g id="Building">
<g id="outer border">
<rect id="border_2" opacity="0.3" x="66" y="132" width="1399" height="525" fill="white"/>
</g>
<g id="Anchor stores">
<rect id="A002" x="70" y="133" width="481" height="172" fill="#FFFF00" stroke="black" stroke-width="2"/>
<rect id="A001" x="991" y="138" width="473" height="167" fill="#FFFF00" stroke="black" stroke-width="2"/>
</g>
</g>
<g id="shops">
<g id="Top left">
<rect id="s001" x="80" y="320" width="77" height="83" fill="#FFFF00" stroke="black" stroke-width="2"/>
<rect id="s002" x="173" y="318" width="41" height="85" fill="#FFFF00" stroke="black" stroke-width="2"/>
<g id="s003">
<mask id="path-15-inside-1_8_97" fill="white">
<path d="M229 317H272V404H229V317Z"/>
</mask>
<path d="M229 317H272V404H229V317Z" fill="#FFFF00" stroke="black" stroke-width="4" mask="url(#path-15-inside-1_8_97)"/>
</g>
<rect id="s004" x="283" y="318" width="42" height="85" fill="#FFFF00" stroke="black" stroke-width="2"/>
<g id="s005">
<mask id="path-17-inside-2_8_97" fill="white">
<path d="M393 321H427V402.5H393V321Z"/>
</mask>
<path d="M393 321H427V402.5H393V321Z" fill="#FFFF00" stroke="black" stroke-width="4" mask="url(#path-17-inside-2_8_97)"/>
</g>
<g id="s006">
<mask id="path-18-inside-3_8_97" fill="white">
<path d="M446.5 317.5H480.5V398.5H446.5V317.5Z"/>
</mask>
<path d="M446.5 317.5H480.5V398.5H446.5V317.5Z" fill="#FFFF00" stroke="black" stroke-width="4" mask="url(#path-18-inside-3_8_97)"/>
</g>
<rect id="s007" x="505" y="320" width="36" height="78" fill="#FFFF00" stroke="black" stroke-width="2"/>
<rect id="s008" x="562" y="322" width="44" height="76" fill="#FFFF00" stroke="black" stroke-width="2"/>
</g>
<g id="top right">
<g id="s009">
<mask id="path-21-inside-4_8_97" fill="white">
<path d="M924 319H977V397H924V319Z"/>
</mask>
<path d="M924 319H977V397H924V319Z" fill="#FFFF00" stroke="black" stroke-width="4" mask="url(#path-21-inside-4_8_97)"/>
</g>
<rect id="s010" x="999" y="320" width="32" height="74" fill="#FFFF00" stroke="black" stroke-width="2"/>
<rect id="s011" x="1051" y="322" width="38" height="76" fill="#FFFF00" stroke="black" stroke-width="2"/>
<rect id="s012" x="1108" y="324" width="34" height="74" fill="#FFFF00" stroke="black" stroke-width="2"/>
<rect id="s013" x="1217" y="324" width="34" height="79" fill="#FFFF00" stroke="black" stroke-width="2"/>
<rect id="s014" x="1270" y="324" width="36" height="79" fill="#FFFF00" stroke="black" stroke-width="2"/>
<rect id="s015" x="1325" y="325" width="33" height="73" fill="#FFFF00" stroke="black" stroke-width="2"/>
<g id="s016">
<mask id="path-28-inside-5_8_97" fill="white">
<path d="M1384 318.5H1452V404H1384V318.5Z"/>
</mask>
<path d="M1384 318.5H1452V404H1384V318.5Z" fill="#FFFF00" stroke="black" stroke-width="4" mask="url(#path-28-inside-5_8_97)"/>
</g>
</g>
<g id="bottom left">
<rect id="s018" x="173" y="491" width="34" height="147" fill="#FFFF00" stroke="black" stroke-width="2"/>
<rect id="s019" x="230" y="493" width="38" height="145" fill="#FFFF00" stroke="black" stroke-width="2"/>
<rect id="s020" x="285" y="497" width="40" height="141" fill="#FFFF00" stroke="black" stroke-width="2"/>
<rect id="s021" x="394" y="501" width="32" height="137" fill="#FFFF00" stroke="black" stroke-width="2"/>
<rect id="s022" x="451" y="501" width="29" height="137" fill="#FFFF00" stroke="black" stroke-width="2"/>
<rect id="s023" x="503" y="497" width="38" height="141" fill="#FFFF00" stroke="black" stroke-width="2"/>
<rect id="s024" x="556" y="497" width="65" height="141" fill="#FFFF00" stroke="black" stroke-width="2"/>
<rect id="s025" x="651" y="576" width="55" height="63" fill="#FFFF00"/>
<rect id="s017" x="80" y="482" width="77" height="156" fill="#FFFF00" stroke="black" stroke-width="2"/>
</g>
<g id="bottom right">
<rect id="s026" x="829" y="587" width="56" height="63" fill="#FFFF00" stroke="black" stroke-width="2"/>
<rect id="s027" x="915" y="501" width="61" height="137" fill="#FFFF00" stroke="black" stroke-width="2"/>
<rect id="s028" x="1003" y="495" width="28" height="143" fill="#FFFF00" stroke="black" stroke-width="2"/>
<rect id="s029" x="1056" y="501" width="33" height="137" fill="#FFFF00" stroke="black" stroke-width="2"/>
<rect id="s030" x="1106" y="541" width="36" height="44" fill="#FFFF00" stroke="black" stroke-width="2"/>
<rect id="s031" x="1215" y="497" width="36" height="141" fill="#FFFF00" stroke="black" stroke-width="2"/>
<rect id="s032" x="1268" y="499" width="38" height="139" fill="#FFFF00" stroke="black" stroke-width="2"/>
<rect id="s033" x="1325" y="493" width="139" height="145" fill="#FFFF00" stroke="black" stroke-width="2"/>
</g>
</g>
<g id="Walkable Area">
<rect id="Horizontal corridor" x="69" y="421" width="1396" height="35" fill="#808080"/>
<rect id="vertical_corridor" x="735" y="140" width="65" height="517" fill="#808080"/>
<ellipse id="central_atrium" cx="767.5" cy="438" rx="32.5" ry="30" fill="#808080"/>
</g>
</g>
</svg>
